<?xml version="1.0" encoding="UTF-8" standalone="no"?>
<!-- Created with Inkscape (http://www.inkscape.org/) -->

<svg
   width="512mm"
   height="512mm"
   viewBox="0 0 512 512"
   version="1.1"
   id="svg5"
   inkscape:export-filename="C:\Users\joach\Pictures\address-autocomplete-favicon.png"
   inkscape:export-xdpi="96"
   inkscape:export-ydpi="96"
   inkscape:version="1.1 (c68e22c387, 2021-05-23)"
   sodipodi:docname="icon.svg"
   xmlns:inkscape="http://www.inkscape.org/namespaces/inkscape"
   xmlns:sodipodi="http://sodipodi.sourceforge.net/DTD/sodipodi-0.dtd"
   xmlns="http://www.w3.org/2000/svg"
   xmlns:svg="http://www.w3.org/2000/svg">
  <sodipodi:namedview
     id="namedview7"
     pagecolor="#505050"
     bordercolor="#eeeeee"
     borderopacity="1"
     inkscape:pageshadow="0"
     inkscape:pageopacity="0"
     inkscape:pagecheckerboard="0"
     inkscape:document-units="mm"
     showgrid="false"
     inkscape:zoom="0.38885732"
     inkscape:cx="-245.59136"
     inkscape:cy="721.34426"
     inkscape:window-width="2560"
     inkscape:window-height="1411"
     inkscape:window-x="2551"
     inkscape:window-y="-9"
     inkscape:window-maximized="1"
     inkscape:current-layer="layer1" />
  <defs
     id="defs2" />
  <g
     inkscape:label="Layer 1"
     inkscape:groupmode="layer"
     id="layer1">
    <g
       id="g3347"
       transform="matrix(4.4715111,0,0,4.4715111,-90.58675,-22.766177)">
      <path
         id="path926-5"
         style="color:#000000;fill:#ff0000;stroke-width:1;-inkscape-stroke:none"
         d="m 102.86504,35.333638 c -0.25342,-0.0011 -0.50734,2.65e-4 -0.7612,0.0052 -2.707776,0.0515 -5.437536,0.441505 -8.124564,1.187524 -7.443624,2.066647 -13.821614,6.859653 -17.648539,13.090167 2.953271,-2.187945 5.94379,-4.326942 8.932788,-6.466284 2.18118,-1.598824 4.660006,-3.392355 7.518405,-3.073691 0.251831,0.03199 0.496623,0.08308 0.734325,0.150363 0.453046,-0.152189 0.910299,-0.294746 1.373028,-0.423228 2.410751,-0.669316 4.85648,-1.019598 7.279167,-1.066085 7.26805,-0.139462 14.33266,2.458878 19.64841,7.411958 3.80994,3.549994 5.99445,7.308585 7.43984,12.868962 0.0822,0.31631 0.26411,2.19083 0.2558,4.314481 -0.0122,3.092054 -0.023,3.262022 -0.56481,4.902544 -2.28158,6.909541 -7.94279,16.129371 -17.14624,27.615356 -1.77882,2.219987 -4.31154,5.231925 -6.42183,7.671885 -1.04908,1.21296 -1.99356,2.28243 -2.68563,3.04271 -0.0796,-0.0871 -0.13457,-0.14076 -0.21704,-0.23254 -2.15664,-2.39948 -4.237248,-4.8123 -6.221332,-7.203179 -0.742262,0.884079 -1.741937,1.551989 -2.834957,1.917199 2.078646,2.50542 4.259844,5.03494 6.527244,7.55769 0.387215,0.43082 0.752055,0.82177 1.044895,1.12085 0.14642,0.14955 0.27141,0.27414 0.39428,0.38706 0.0614,0.0565 0.1184,0.10721 0.21138,0.17931 0.0465,0.0361 0.0978,0.078 0.20669,0.14264 0.0545,0.0323 0.12075,0.071 0.24029,0.11935 0.0598,0.0241 0.13362,0.051 0.23461,0.076 0.10099,0.0249 0.41082,0.0511 0.41188,0.0511 0.9458,0 0.89955,-0.2468 1.01181,-0.32451 0.11227,-0.0777 0.1722,-0.1306 0.23255,-0.18346 0.12073,-0.10575 0.22508,-0.20876 0.34726,-0.33229 0.24437,-0.24704 0.54483,-0.56912 0.90848,-0.9684 0.72728,-0.79857 1.69201,-1.89267 2.75952,-3.12695 2.135,-2.46857 4.67691,-5.48984 6.50192,-7.767483 9.32982,-11.643704 15.20392,-21.047101 17.72296,-28.675779 0.58904,-1.783795 0.72409,-2.81477 0.73639,-5.957253 0.009,-2.251419 -0.044,-3.945413 -0.36536,-5.1816 -1.56737,-6.029589 -4.18293,-10.559573 -8.41397,-14.501944 -5.79382,-5.398532 -13.4126,-8.292489 -21.26845,-8.327671 z m -0.27905,13.447244 c -1.11088,0.0045 -2.22113,0.125069 -3.331584,0.362771 -1.052407,0.225266 -2.063883,0.543718 -3.027204,0.942578 -3.807698,1.753684 -5.021712,3.018631 -7.119461,5.668909 -1.036241,1.491959 -1.80939,3.170873 -2.257748,4.986258 -0.29863,1.209146 -0.422034,2.414217 -0.395327,3.597196 1.135697,-0.0026 2.270956,0 3.406502,0.01138 -0.0304,-0.92284 0.05911,-1.859624 0.289904,-2.794132 1.121093,-4.539166 4.815576,-8.017775 9.814401,-9.087829 1.433087,-0.306758 2.816937,-0.383434 4.224547,-0.21291 1.40759,0.17055 2.84054,0.588195 4.36925,1.267645 2.08415,0.926306 4.59581,3.285093 5.56038,5.166095 1.44153,2.811172 1.75583,5.188347 1.11363,7.788672 -1.12107,4.539139 -4.81764,8.017774 -9.81646,9.087802 -0.71732,0.153564 -2.22115,0.305515 -2.9006,0.297154 h -0.003 c -1.19782,-0.01455 -2.34918,-0.188701 -3.438552,-0.491966 -0.632671,0.524324 -1.376336,0.91133 -2.206069,1.09347 -1.047882,0.08498 -2.09632,0.146685 -3.145552,0.193278 2.512748,1.598559 5.514631,2.565876 8.749343,2.60551 1.10721,0.01349 2.55363,-0.135043 3.65612,-0.371025 6.15646,-1.317863 10.96053,-5.751512 12.40441,-11.597745 0.83383,-3.376295 0.33946,-6.78614 -1.38856,-10.155979 -1.44722,-2.822231 -4.23751,-5.404088 -7.20524,-6.723089 -1.79091,-0.795972 -3.57439,-1.303019 -5.35368,-1.517226 -0.66723,-0.08033 -1.33387,-0.119539 -2.00039,-0.116787 z"
         sodipodi:nodetypes="scsccccssssscssccccsssssccsssssssscsssscsccsccssssssssscccscsssscc" />
      <path
         style="fill:#000000;stroke-width:0.264583"
         d="m 30.785188,96.307846 c -4.07311,-1.3043 -7.55303,-2.51884 -7.73316,-2.69897 -0.18013,-0.18013 -0.399,-0.68498 -0.48638,-1.12188 -0.21482,-1.07409 0.68313,-2.24125 1.72429,-2.24125 0.40979,0 3.76297,0.9525 7.45153,2.11667 3.68855,1.16417 6.84171,2.11667 7.00701,2.11667 0.20429,0 0.33809,-1.1759 0.41773,-3.67115 0.10883,-3.41023 0.17235,-3.78161 0.89381,-5.22552 1.06761,-2.1367 2.44746,-3.07998 4.71684,-3.22448 1.06305,-0.0677 2.2181,0.0493 3.14414,0.31853 1.90478,0.55374 2.99334,0.52975 4.29275,-0.0946 2.15396,-1.03495 3.01221,-2.28196 3.33392,-4.84409 0.13051,-1.03938 0.46407,-2.21559 0.75908,-2.67672 1.12469,-1.75798 1.19171,-1.9936 0.8225,-2.89177 -0.69552,-1.69203 -0.65132,-2.11487 0.32983,-3.15519 l 0.92228,-0.9779 -0.52168,-2.03641 c -0.77037,-3.0072 -0.31562,-4.06445 1.74823,-4.06445 1.74642,0 2.78386,-0.2836 3.08315,-0.84282 0.31565,-0.58981 0.0299,-1.12855 -3.37824,-6.36859 -3.49755,-5.37755 -3.339,-4.92785 -3.61416,-10.25109 -0.36363,-7.03488 -0.35018,-7.38576 0.33376,-8.71047 0.93869,-1.81809 0.70779,-3.66769 -0.71288,-5.71053 -5.72245,-8.22858 -16.10289,-12.51128 -28.78197,-11.87472 -3.04501,0.15288 -3.50425,0.12019 -3.9022,-0.27776 -1.07015,-1.07015 -0.79219,-2.81844 0.53711,-3.37829 0.46797,-0.19709 2.58667,-0.31167 5.89023,-0.31854 4.34009,-0.009 5.63672,0.0849 8.16544,0.59134 5.61947,1.1255 9.44233,2.60816 13.4725,5.22519 3.87829,2.5184 8.42227,7.55081 9.48341,10.50276 0.64882,1.80496 0.52469,4.57691 -0.28719,6.41269 -0.62615,1.41586 -0.66228,1.67881 -0.40254,2.92999 0.15695,0.75599 0.29162,2.84555 0.29927,4.64345 0.01,2.31781 0.12575,3.48519 0.39829,4.01223 0.21141,0.40881 1.66747,2.73127 3.23569,5.161 1.56822,2.42974 2.99064,4.82242 3.16093,5.31708 0.44117,1.2815 0.37411,2.6372 -0.19212,3.88392 -0.57458,1.26508 -1.45964,2.02404 -3.08359,2.64423 l -1.17351,0.44817 0.16438,1.39864 c 0.1332,1.13328 0.0523,1.63024 -0.42652,2.61929 -0.43247,0.89338 -0.54496,1.46554 -0.41954,2.13406 0.20968,1.11772 -0.21952,2.85663 -1.01106,4.09627 -0.32522,0.50932 -0.73906,1.7462 -0.91964,2.74863 -0.40654,2.25668 -1.06272,3.57077 -2.60791,5.22271 -2.36983,2.53354 -6.07623,3.47925 -9.74436,2.48633 -3.39557,-0.91914 -3.92194,-0.25542 -4.00052,5.04432 -0.0482,3.2497 -0.13328,3.92147 -0.61688,4.8694 -0.61845,1.21226 -2.15728,2.11499 -3.57266,2.09582 -0.43656,-0.006 -4.12629,-1.0779 -8.19939,-2.3822 z m 50.99571,-7.74052 c -8.10768,-4.86339 -10.96788,-6.35192 -11.33808,-7.19921 -0.62503,-1.43053 1.07672,-2.86846 2.50537,-2.3292 0.96307,0.36352 19.70917,11.27165 20.24136,12.03145 0.81785,1.16764 -0.19819,2.87955 -1.70905,2.87955 -0.58251,0 -3.36726,-1.58414 -9.6996,-5.38259 z m -7.45524,-16.7458 c -0.62645,-0.7964 -0.67597,-1.21473 -0.24057,-2.03223 0.65353,-1.22705 0.60792,-1.2221 11.36433,-1.23097 9.94212,-0.008 10.23568,0.006 10.91407,0.53996 0.87353,0.68712 0.95581,2.10338 0.16797,2.89121 -0.5115,0.5115 -0.88194,0.52917 -11.0933,0.52917 h -10.56413 z m -3.33852,-10.27104 c -0.72068,-0.72069 -0.80362,-1.30086 -0.3148,-2.20208 0.17975,-0.33141 4.79016,-3.87352 10.24534,-7.87136 10.66712,-7.81742 10.91142,-7.9515 12.12808,-6.65643 0.69455,0.73932 0.74111,1.78181 0.11226,2.51383 -0.25466,0.29645 -3.91583,3.06951 -8.13594,6.16237 -4.2201,3.09285 -8.61673,6.31631 -9.77029,7.16324 -2.37237,1.74175 -3.23353,1.92155 -4.26465,0.89043 z"
         id="path1074-1"
         sodipodi:nodetypes="ssssssssssssssscsssssssssssssssscssssscssssssssscsssssssssccsscsssssssss" />
    </g>
  </g>
</svg>
